<svg xmlns="http://www.w3.org/2000/svg" width="213" height="38.682"><g data-name="Group 4"><g data-name="Group 3" fill="#fff"><g data-name="Group 1"><path data-name="Path 1" d="M6.34 19.077l17.2-17.2a6.4 6.4 0 00-9.047 0l-12.68 12.68a6.2 6.2 0 000 8.773l.137.137 5.552 5.552 4.387-4.387z"/><path data-name="Path 2" d="M19.952 19.605l-17.2 17.2a6.4 6.4 0 009.047 0l12.68-12.68a6.2 6.2 0 000-8.773l-.137-.137-5.559-5.548-4.387 4.387z"/></g><g data-name="Group 2"><path data-name="Path 3" d="M39.41 26.138a2.859 2.859 0 00.355 1.663 1.576 1.576 0 001.324.468 5.834 5.834 0 001.049-.081 5.918 5.918 0 001.082-.339l-.388 2.777a5.953 5.953 0 01-2.68.549 4.143 4.143 0 01-3.181-1.1 4.964 4.964 0 01-1.017-3.455V7.442h3.455z"/><path data-name="Path 4" d="M59.139 16.612a9.989 9.989 0 010 12.335 8.95 8.95 0 01-11.818 0 9.989 9.989 0 010-12.335 8.95 8.95 0 0111.818 0zm-9.283 1.954a8.121 8.121 0 000 8.428 4.611 4.611 0 006.765-.016 7.971 7.971 0 000-8.4 4.61 4.61 0 00-6.765-.016z"/><path data-name="Path 5" d="M78.707 16.612a9.989 9.989 0 010 12.335 8.95 8.95 0 01-11.818 0 9.989 9.989 0 010-12.335 8.95 8.95 0 0111.818 0zm-9.283 1.954a8.122 8.122 0 000 8.428 4.611 4.611 0 006.765-.016 7.972 7.972 0 000-8.4 4.611 4.611 0 00-6.765-.016z"/><path data-name="Path 6" d="M91.913 23.264l-3.2 3.294v4.295h-3.452V7.442h3.455v15.177l7.718-7.911h4.068l-6.167 6.329 6.555 9.816h-4z"/><path data-name="Path 7" d="M105.298 30.335a5.962 5.962 0 01-2.858-2.551l2.325-2a4 4 0 001.9 2.034 6.86 6.86 0 003.1.646 5.06 5.06 0 002.551-.533 1.592 1.592 0 00.9-1.4 1.4 1.4 0 00-.84-1.243 11.072 11.072 0 00-2.906-.888 12.281 12.281 0 01-5.037-1.808 3.815 3.815 0 01-1.453-3.2 4.208 4.208 0 01.807-2.47 5.6 5.6 0 012.341-1.841 8.751 8.751 0 013.633-.694 8.914 8.914 0 014.294.888 5.852 5.852 0 012.487 2.761l-2.454 1.808a4.278 4.278 0 00-1.631-2.083 4.915 4.915 0 00-2.664-.662 4.456 4.456 0 00-2.406.6 1.67 1.67 0 00-.953 1.373 1.565 1.565 0 00.856 1.389 10.258 10.258 0 003.116.936 11.234 11.234 0 014.844 1.744 3.817 3.817 0 011.421 3.164 4.164 4.164 0 01-1.873 3.52 8.665 8.665 0 01-5.167 1.356 10.6 10.6 0 01-4.333-.846z"/><path data-name="Path 8" d="M124.236 26.138a2.862 2.862 0 00.355 1.663 1.576 1.576 0 001.324.468 5.835 5.835 0 001.049-.081 5.921 5.921 0 001.082-.339l-.387 2.777a5.954 5.954 0 01-2.68.549 4.144 4.144 0 01-3.181-1.1 4.965 4.965 0 01-1.017-3.455V7.442h3.455z"/><path data-name="Path 9" d="M130.985 11.43a2.063 2.063 0 01-.614-1.6 2.013 2.013 0 01.614-1.582 2.476 2.476 0 011.711-.549 2.416 2.416 0 011.7.549 2.042 2.042 0 01.6 1.582 2.093 2.093 0 01-.6 1.6 2.371 2.371 0 01-1.7.565 2.429 2.429 0 01-1.711-.565zm3.423 19.423h-3.455V14.707h3.455z"/><path data-name="Path 10" d="M146.451 23.264l-3.2 3.294v4.295h-3.455V7.442h3.462v15.177l7.717-7.911h4.069l-6.167 6.329 6.555 9.816h-4z"/><path data-name="Path 11" d="M172.25 24.071h-11.818a5.153 5.153 0 001.518 3.245 4.526 4.526 0 003.164 1.114 5.5 5.5 0 002.632-.565 2.956 2.956 0 001.437-1.63l2.874 1.194q-1.809 3.746-6.943 3.746a7.885 7.885 0 01-5.957-2.228 8.516 8.516 0 01-2.147-6.167 8.708 8.708 0 012.067-6.184 7.565 7.565 0 015.812-2.212 7.091 7.091 0 015.522 2.163 8.209 8.209 0 011.97 5.748 11.729 11.729 0 01-.131 1.776zm-10.381-5.845a5.276 5.276 0 00-1.437 3.2h8.719a5.322 5.322 0 00-1.372-3.164 3.882 3.882 0 00-2.89-1.13 4.184 4.184 0 00-3.02 1.095z"/><path data-name="Path 12" d="M180.21 27.123a2.231 2.231 0 01.662 1.7 2.283 2.283 0 01-.662 1.711 2.413 2.413 0 01-1.76.646 2.47 2.47 0 01-1.776-.646 2.253 2.253 0 01-.678-1.711 2.229 2.229 0 01.662-1.7 2.492 2.492 0 011.792-.63 2.448 2.448 0 011.76.63z"/><path data-name="Path 13" d="M199.438 16.596a9.13 9.13 0 011.9 6.151 9.257 9.257 0 01-1.9 6.183 6.5 6.5 0 01-5.231 2.244 6.225 6.225 0 01-3.116-.775 5.368 5.368 0 01-2.115-2.131v9.364h-3.455V14.707h3.036l.161 3a5.63 5.63 0 012.147-2.422 6.146 6.146 0 013.342-.9 6.544 6.544 0 015.231 2.211zm-2.729 10.3a6.422 6.422 0 001.179-4.117 6.492 6.492 0 00-1.179-4.133 3.951 3.951 0 00-3.277-1.485 4.007 4.007 0 00-3.148 1.324 5.846 5.846 0 00-1.308 3.681v1.227a5.8 5.8 0 001.308 3.649 4.4 4.4 0 006.426-.145z"/><path data-name="Path 14" d="M209.19 26.138a2.859 2.859 0 00.355 1.663 1.575 1.575 0 001.324.468 5.838 5.838 0 001.049-.081 5.92 5.92 0 001.082-.339l-.387 2.777a5.951 5.951 0 01-2.68.549 4.143 4.143 0 01-3.181-1.1 4.964 4.964 0 01-1.017-3.455V7.442h3.455z"/></g></g></g></svg>