<svg xmlns="http://www.w3.org/2000/svg" width="640.334" height="857.261"><path data-name="Path 1" d="M201.01 424.012l301.209-301.205a112.005 112.005 0 00-158.4 0l-222 222a108.613 108.613 0 000 153.6l2.4 2.4 97.2 97.2 76.8-76.8z"/><path data-name="Path 2" d="M439.32 433.248L138.115 734.453a112 112 0 00158.4 0l222-222a108.611 108.611 0 000-153.6l-2.4-2.4-97.2-97.2-76.8 76.8z"/><g data-name="Group 553" style="isolation:isolate" fill="#0d0d61"><path data-name="Path 1" d="M191.01 414.012l301.209-301.205a112.005 112.005 0 00-158.4 0l-222 222a108.613 108.613 0 000 153.6l2.4 2.4 97.2 97.2 76.8-76.8z"/><path data-name="Path 2" d="M429.32 423.249L128.115 724.454a112 112 0 00158.4 0l222-222a108.611 108.611 0 000-153.6l-2.4-2.4-97.2-97.2-76.8 76.8z"/></g></svg>